<svg xmlns="http://www.w3.org/2000/svg" width="2432" height="477" viewBox="0 0 2432 477" preserveAspectRatio="none">
  <g id="path-main" mask="url(#path-mask)">
    <g>
      <path d="M548.92,423.05a989.28,989.28,0,0,1-168.2-14.61C254.61,386.62,127.71,340.69,3.5,272l-1.3-.7,35.3-64,1.3.7c117.11,64.76,236.31,108,354.32,128.41a915.27,915.27,0,0,0,155.8,13.61c14.3,0,28.7-.4,42.8-1.1,74.41-3.7,138.71-16,196.61-37.53,61-22.72,116.11-53.94,163.71-92.88,3-2.5,6-5,8.9-7.4l1.1-1.1c31.5-27.43,45.3-46.74,48.7-51.75h0l.8-1.4c10.5-15.61,14.9-27.72,17.3-35.43,3.9-12.51,4.7-30.62-5.5-40.23a26,26,0,0,0-17.4-6.61,23.42,23.42,0,0,0-10.1,2.2c-13.5,6.71-16.1,23.52-12.8,36.33,3.5,13.62,12.2,28,25.1,41.64l.8.9-.7,1c-3.6,5.31-17.6,24.52-48.4,51.34l-1.1.91-1-1c-23.2-23.62-38.5-49.34-45.5-76.46a112.17,112.17,0,0,1,3.4-67.16,97.79,97.79,0,0,1,47.6-52.94,93.9,93.9,0,0,1,42.4-9.91,98.59,98.59,0,0,1,15.3,1.2A97.56,97.56,0,0,1,1073.14,28c29,27.33,38.71,71.36,25.31,114.9A207.51,207.51,0,0,1,1071.64,198a666.79,666.79,0,0,1-51.6,58.34l-.9.91h-.1c-6.4,5.8-13.2,11.61-20.9,17.91-53.9,44-116,79.27-184.51,104.79-65.1,24.22-136.5,37.93-218.41,42C580,422.65,564.32,423.05,548.92,423.05Z" style="fill: #ddedce"></path>
      <path d="M1005.64,3a97,97,0,0,1,15.1,1.2,95.75,95.75,0,0,1,51.4,24.92c28.61,26.93,38.11,70.36,24.91,113.4a210.42,210.42,0,0,1-26.61,54.65,670,670,0,0,1-51.4,58.14h0c-7.6,6.91-14.9,13.12-21.7,18.62-53.8,43.94-115.7,79.17-184,104.59-64.9,24.12-136.2,37.83-218,41.93-15.4.8-30.8,1.1-46.3,1.1a987.85,987.85,0,0,1-168-14.61C255.11,385.12,128.41,339.28,4.3,270.73l33.9-61.35c117.11,64.85,236.41,108.09,354.62,128.5a918.47,918.47,0,0,0,156,13.61c14.4,0,28.7-.4,42.9-1.1,74.51-3.7,139-16,197.11-37.63,61.1-22.72,116.41-54,164.11-93.18,3.5-2.9,6.9-5.7,10.1-8.5l-.1-.1c36.2-31.43,49.2-52.45,49.8-53.35h-.1a133,133,0,0,0,17.5-35.83c4-12.91,4.8-31.62-5.9-41.73a27.29,27.29,0,0,0-18.5-7,24.74,24.74,0,0,0-10.8,2.4c-14.3,7.11-17,24.72-13.6,38,3.6,14,12.4,28.52,25.4,42.33-3.4,5-17.3,24.22-48.1,51-18.7-19.11-37-44.53-45.1-75.86a110.06,110.06,0,0,1,3.4-66.26A94,94,0,0,1,1005.64,3m0-3V0a96.61,96.61,0,0,0-43.1,10,99,99,0,0,0-48.4,53.74,113.52,113.52,0,0,0-3.5,68.06c7.1,27.42,22.5,53.35,45.9,77.17l2,2,2.1-1.9c29.1-25.33,43.3-43.94,47.9-50.45h0c-4.5,6.41-18.4,24.82-47.5,50.15l-2.5,2.1.1.1c-2.4,2.1-5,4.2-7.5,6.3-47.5,38.83-102.51,70.06-163.31,92.68-57.8,21.52-122,33.73-196.21,37.43-14.1.7-28.5,1.1-42.7,1.1A921.87,921.87,0,0,1,393.42,335c-117.91-20.42-237-63.55-353.92-128.21l-2.6-1.5-1.5,2.6L1.5,269.23,0,271.83l2.6,1.5c124.51,68.76,251.61,114.8,377.82,136.61a992.78,992.78,0,0,0,168.5,14.62c15.5,0,31.2-.4,46.5-1.21,82.11-4.1,153.71-17.91,218.91-42.13,68.71-25.52,130.91-60.85,184.91-105,7.3-6,13.9-11.61,20.1-17.11l.1.1,1.8-1.8a653.17,653.17,0,0,0,51.7-58.45l.1-.1.1-.1a210.55,210.55,0,0,0,27-55.45c13.3-44.14,3.5-88.77-25.91-116.5a99.07,99.07,0,0,0-53-25.72,116.88,116.88,0,0,0-15.6-1.1Zm4.9,155.43-1.6-1.7c-12.7-13.41-21.3-27.62-24.7-41-3.2-12.21-.7-28.32,12-34.62a20.93,20.93,0,0,1,9.5-2.11,24.34,24.34,0,0,1,16.4,6.21c9.7,9.11,8.8,26.52,5.1,38.63-2.3,7.71-6.6,19.52-16.7,34.63Z" style="fill: #f5f4ea"></path>
    </g>
    <g>
      <path d="M1954.48,475.4c-68.5,0-134.81-2.1-197.11-6.21-128.7-8.5-245.41-24.92-356.71-50.24-79.31-18.11-153.31-42.13-220-71.46A949.94,949.94,0,0,1,1023,259.92l-1.5-1,1.3-1.3a679.09,679.09,0,0,0,46.9-52.55l.9-1.1,1.1.8A876.67,876.67,0,0,0,1210,280.64c62.5,27.42,132.11,50,206.91,67.05,107.5,24.52,220.41,40.44,345.31,48.64,60.6,4,125.31,6,192.21,6,170.81,0,339.71-13.21,467.82-24.82l1.5-.1,6.5,72.76-1.5.1C2299.19,462.09,2128.19,475.4,1954.48,475.4Z" style="fill: #ddedce"></path>
      <path d="M1071,206.07a873.92,873.92,0,0,0,138.41,76c62.6,27.52,132.21,50.14,207.11,67.15,107.6,24.52,220.61,40.44,345.51,48.64,64.21,4.21,128.61,6,192.31,6,164.91,0,325.61-12,467.92-24.82l6.3,69.76c-144,13-306.71,25-474.12,25h-.1c-65.2,0-131.1-1.8-196.91-6.21-128.7-8.51-245.21-24.92-356.41-50.24-79.21-18-153.11-42-219.71-71.36A938.52,938.52,0,0,1,1024,258.52a640.18,640.18,0,0,0,47-52.45m-.6-4-1.7,2.2a654.75,654.75,0,0,1-46.8,52.45l-2.5,2.5,2.9,2c48.1,33.33,101.21,62.85,157.81,87.77,66.8,29.33,140.9,53.45,220.31,71.46,111.4,25.42,228.11,41.84,356.91,50.34,62.2,4.11,128.61,6.21,197.11,6.21h.1c173.71,0,344.81-13.41,474.42-25.12l3-.3-.3-3-6.3-69.76-.3-3-3,.3c-128,11.51-296.91,24.72-467.72,24.72-66.9,0-131.61-2-192.11-6-124.8-8.21-237.61-24.12-345-48.54-74.7-17-144.21-39.53-206.61-67a869.73,869.73,0,0,1-138-75.76l-2.2-1.5Z" style="fill: #f5f4ea"></path>
    </g>
  </g>
  <mask id="path-mask">
    <path class="path-mask-stroke" d="M19,241.51l1.3.7c120.67,66.79,243.67,111.3,365.8,132.5,210.4,33,352.57-3.91,414.07-26.78C952.62,292.8,1015.81,206.49,1016,206.26c32.47-29.52,76.66-93.1,31.4-149.37-43.62-30.73-67-10.81-73.1-6.73-66.23,47.64-8.13,116.69,6.37,132l65.88,52.42a912.73,912.73,0,0,0,147.91,81.72c64.6,28.37,136.45,51.69,213.45,69.26,109.39,24.92,224.19,41.08,351,49.44,61.45,4.05,126.95,6.1,194.66,6.1,172.23,0,342.19-13.29,471-25l1.5-.1" style="fill: none; stroke: rgb(221, 237, 206); stroke-miterlimit: 10; stroke-width: 76px; stroke-dasharray: 2975.72px, 2975.72px; opacity: 1;"></path>
  </mask>
</svg>